<?xml version="1.0" encoding="utf-8"?>
<!-- Generator: Adobe Illustrator 27.5.0, SVG Export Plug-In . SVG Version: 6.00 Build 0)  -->
<svg version="1.1" id="visual" xmlns="http://www.w3.org/2000/svg" xmlns:xlink="http://www.w3.org/1999/xlink" x="0px" y="0px"
	 viewBox="0 0 900 213" style="enable-background:new 0 0 900 213;" xml:space="preserve">
<style type="text/css">
	.st0{fill:#FFFFFF;}
	.st1{fill:#7DD3FC;}
	.st2{fill:#38AEFE;}
	.st3{fill:#3B82F6;}
</style>
<rect class="st0" width="900" height="213"/>
<path class="st1" d="M0,25l21.5-3.8C43,17.3,86,9.7,128.8,9.3c42.9-0.3,85.5,6.7,128.4,14c42.8,7.4,85.8,15,128.6,20.2
	c42.9,5.2,85.5,7.8,128.4,11.8c42.8,4,85.8,9.4,128.6,0.4c42.9-9,85.5-32.4,128.4-33.2C814,21.7,857,43.3,878.5,54.2L900,65v149
	h-21.5c-21.5,0-64.5,0-107.3,0c-42.9,0-85.5,0-128.4,0c-42.8,0-85.8,0-128.6,0c-42.9,0-85.5,0-128.4,0c-42.8,0-85.8,0-128.6,0
	c-42.9,0-85.5,0-128.4,0c-42.8,0-85.8,0-107.3,0H0V25z"/>
<path class="st2" d="M0,85l21.5,3.3c21.5,3.4,64.5,10,107.3,9c42.9-1,85.5-9.6,128.4-10.8c42.8-1.2,85.8,5.2,128.6,5.7
	c42.9,0.5,85.5-4.9,128.4-15.5C557,66,600,50,642.8,54c42.9,4,85.5,28,128.4,36.8c42.8,8.9,85.8,2.5,107.3-0.6L900,87v127h-21.5
	c-21.5,0-64.5,0-107.3,0c-42.9,0-85.5,0-128.4,0c-42.8,0-85.8,0-128.6,0c-42.9,0-85.5,0-128.4,0c-42.8,0-85.8,0-128.6,0
	c-42.9,0-85.5,0-128.4,0c-42.8,0-85.8,0-107.3,0H0V85z"/>
<path class="st3" d="M0,128l21.5,3.5C43,135,86,142,128.8,143.2c42.9,1.1,85.5-3.5,128.4,0.5c42.8,4,85.8,16.6,128.6,16.8
	c42.9,0.2,85.5-12.2,128.4-21.7c42.8-9.5,85.8-16.1,128.6-10c42.9,6.2,85.5,25.2,128.4,29.4c42.8,4.1,85.8-6.5,107.3-11.9L900,141
	v73h-21.5c-21.5,0-64.5,0-107.3,0c-42.9,0-85.5,0-128.4,0c-42.8,0-85.8,0-128.6,0c-42.9,0-85.5,0-128.4,0c-42.8,0-85.8,0-128.6,0
	c-42.9,0-85.5,0-128.4,0c-42.8,0-85.8,0-107.3,0H0V128z"/>
</svg>
