<svg id="visual" viewBox="0 0 900 213" width="900" height="213" xmlns="http://www.w3.org/2000/svg" xmlns:xlink="http://www.w3.org/1999/xlink" version="1.1"><rect x="0" y="0" width="900" height="213" fill="#ffffff"></rect><path d="M0 67L16.7 74.2C33.3 81.3 66.7 95.7 100 98.8C133.3 102 166.7 94 200 84C233.3 74 266.7 62 300 67C333.3 72 366.7 94 400 99.7C433.3 105.3 466.7 94.7 500 82.5C533.3 70.3 566.7 56.7 600 52C633.3 47.3 666.7 51.7 700 53C733.3 54.3 766.7 52.7 800 48.7C833.3 44.7 866.7 38.3 883.3 35.2L900 32L900 214L883.3 214C866.7 214 833.3 214 800 214C766.7 214 733.3 214 700 214C666.7 214 633.3 214 600 214C566.7 214 533.3 214 500 214C466.7 214 433.3 214 400 214C366.7 214 333.3 214 300 214C266.7 214 233.3 214 200 214C166.7 214 133.3 214 100 214C66.7 214 33.3 214 16.7 214L0 214Z" fill="#7dd3fc"></path><path d="M0 105L16.7 111.2C33.3 117.3 66.7 129.7 100 138.2C133.3 146.7 166.7 151.3 200 145C233.3 138.7 266.7 121.3 300 116.7C333.3 112 366.7 120 400 116.8C433.3 113.7 466.7 99.3 500 104C533.3 108.7 566.7 132.3 600 132.2C633.3 132 666.7 108 700 107.5C733.3 107 766.7 130 800 132.2C833.3 134.3 866.7 115.7 883.3 106.3L900 97L900 214L883.3 214C866.7 214 833.3 214 800 214C766.7 214 733.3 214 700 214C666.7 214 633.3 214 600 214C566.7 214 533.3 214 500 214C466.7 214 433.3 214 400 214C366.7 214 333.3 214 300 214C266.7 214 233.3 214 200 214C166.7 214 133.3 214 100 214C66.7 214 33.3 214 16.7 214L0 214Z" fill="#38aefe"></path><path d="M0 187L16.7 183C33.3 179 66.7 171 100 161.3C133.3 151.7 166.7 140.3 200 144.5C233.3 148.7 266.7 168.3 300 172.3C333.3 176.3 366.7 164.7 400 156.7C433.3 148.7 466.7 144.3 500 147.8C533.3 151.3 566.7 162.7 600 169.8C633.3 177 666.7 180 700 182.5C733.3 185 766.7 187 800 184.3C833.3 181.7 866.7 174.3 883.3 170.7L900 167L900 214L883.3 214C866.7 214 833.3 214 800 214C766.7 214 733.3 214 700 214C666.7 214 633.3 214 600 214C566.7 214 533.3 214 500 214C466.7 214 433.3 214 400 214C366.7 214 333.3 214 300 214C266.7 214 233.3 214 200 214C166.7 214 133.3 214 100 214C66.7 214 33.3 214 16.7 214L0 214Z" fill="#3b82f6"></path></svg>