<svg id="visual" viewBox="0 0 900 213" width="900" height="213" xmlns="http://www.w3.org/2000/svg" xmlns:xlink="http://www.w3.org/1999/xlink" version="1.1"><rect x="0" y="0" width="900" height="213" fill="#3b82f6"></rect><path d="M0 136L16.7 131.3C33.3 126.7 66.7 117.3 100 118.8C133.3 120.3 166.7 132.7 200 136.8C233.3 141 266.7 137 300 133.8C333.3 130.7 366.7 128.3 400 135.2C433.3 142 466.7 158 500 160.8C533.3 163.7 566.7 153.3 600 142.7C633.3 132 666.7 121 700 114.8C733.3 108.7 766.7 107.3 800 113.5C833.3 119.7 866.7 133.3 883.3 140.2L900 147L900 0L883.3 0C866.7 0 833.3 0 800 0C766.7 0 733.3 0 700 0C666.7 0 633.3 0 600 0C566.7 0 533.3 0 500 0C466.7 0 433.3 0 400 0C366.7 0 333.3 0 300 0C266.7 0 233.3 0 200 0C166.7 0 133.3 0 100 0C66.7 0 33.3 0 16.7 0L0 0Z" fill="#3b82f6"></path><path d="M0 67L16.7 72.5C33.3 78 66.7 89 100 95.3C133.3 101.7 166.7 103.3 200 101.2C233.3 99 266.7 93 300 97.3C333.3 101.7 366.7 116.3 400 115.3C433.3 114.3 466.7 97.7 500 88.2C533.3 78.7 566.7 76.3 600 83.8C633.3 91.3 666.7 108.7 700 113.5C733.3 118.3 766.7 110.7 800 109.7C833.3 108.7 866.7 114.3 883.3 117.2L900 120L900 0L883.3 0C866.7 0 833.3 0 800 0C766.7 0 733.3 0 700 0C666.7 0 633.3 0 600 0C566.7 0 533.3 0 500 0C466.7 0 433.3 0 400 0C366.7 0 333.3 0 300 0C266.7 0 233.3 0 200 0C166.7 0 133.3 0 100 0C66.7 0 33.3 0 16.7 0L0 0Z" fill="#38aefe"></path><path d="M0 25L16.7 33C33.3 41 66.7 57 100 56.3C133.3 55.7 166.7 38.3 200 30.8C233.3 23.3 266.7 25.7 300 31.5C333.3 37.3 366.7 46.7 400 47.7C433.3 48.7 466.7 41.3 500 42.7C533.3 44 566.7 54 600 58.5C633.3 63 666.7 62 700 55.5C733.3 49 766.7 37 800 31.3C833.3 25.7 866.7 26.3 883.3 26.7L900 27L900 0L883.3 0C866.7 0 833.3 0 800 0C766.7 0 733.3 0 700 0C666.7 0 633.3 0 600 0C566.7 0 533.3 0 500 0C466.7 0 433.3 0 400 0C366.7 0 333.3 0 300 0C266.7 0 233.3 0 200 0C166.7 0 133.3 0 100 0C66.7 0 33.3 0 16.7 0L0 0Z" fill="#7dd3fc"></path></svg>